<?xml version="1.0" encoding="UTF-8"?>
<svg id="Layer_1" data-name="Layer 1" xmlns="http://www.w3.org/2000/svg" viewBox="0 0 270.67 394">
  <defs>
    <style>
      .cls-1 {
        fill: rgb(0, 54, 202);
      }
    </style>
  </defs>
  <path class="cls-1" d="M135.83,145.55c8.38,0,18.35-3.41,18.35-19.68,0-18.67-14.31-44.45-18.38-51.77-17.6,32.3-18.33,47.29-18.33,51.97,0,12.56,6.52,19.48,18.35,19.48M135.86,88.16c4.27,8.69,11.75,25.63,11.75,37.71,0,9.18-3.52,13.1-11.77,13.1s-11.77-3.85-11.77-12.89c0-11.83,7.54-29.08,11.8-37.91M103.19,341.34c-3.28-16.32-19.17-26.91-35.5-23.63-14.08,2.82-24.22,15.2-24.21,29.56,0,15.8,12.43,28.87,27.77,30.05.8.06,1.59.1,2.38.1,14.2-.04,26.46-9.96,29.45-23.85.36-1.75,1.9-3.01,3.68-3.03h90.34c2.08,0,3.77,1.69,3.77,3.77v16.98c0,2.08-1.69,3.77-3.77,3.77h-13.67v6.6h41.47v-6.59h-13.68c-2.07,0-3.76-1.68-3.76-3.76v-16.98c0-2.08,1.69-3.77,3.76-3.77h13.68v-6.59h-118.5c-1.55-.05-2.87-1.14-3.22-2.64M73.61,370.84c-13.02,0-23.56-10.55-23.56-23.56s10.55-23.57,23.56-23.57,23.56,10.55,23.56,23.57c0,13.01-10.56,23.55-23.56,23.56"/>
  <path class="cls-1" d="M132.55,252.75v35.87c0,2.08-1.69,3.76-3.77,3.76h-17.22v6.59h48.55v-6.59h-17.21c-2.08,0-3.77-1.68-3.77-3.76v-35.87c0-2.01,1.59-3.66,3.61-3.76,61.82-3.6,111.03-54.99,111.03-117.7,0-55.53-43.28-117.95-117.94-117.95-65.03,0-117.93,52.91-117.93,117.95s49.2,114.1,111.03,117.7c2.02.09,3.61,1.75,3.62,3.76M112.5,184.23h46.67c-1.81,12.89-13.73,21.87-26.62,20.05-10.41-1.47-18.58-9.65-20.05-20.05ZM135.83,19.92c68.05,0,111.36,60.1,111.36,111.36,0,58.93-46.04,107.27-104,111.08h-.26c-2.09,0-3.8-1.68-3.81-3.77v-24.51c.07-1.76,1.31-3.26,3.02-3.68,13.89-2.99,23.82-15.26,23.85-29.46v-3.29h-60.31v3.29c.02,14.2,9.94,26.47,23.83,29.46,1.72.42,2.94,1.92,3.01,3.68v24.5c0,2.09-1.71,3.78-3.8,3.78h-.27c-57.96-3.81-103.98-52.15-103.98-111.08S74.42,19.92,135.83,19.92"/>
</svg>
